<svg width="24" height="24" viewBox="0 0 24 24" fill="none" xmlns="http://www.w3.org/2000/svg">
<path d="M20.7727 14.0009C19.8797 17.9187 16.4987 20.7706 12.4864 20.9903C8.47404 21.21 4.80185 18.7443 3.48643 14.9474C2.17101 11.1505 3.53083 6.94155 6.81912 4.63199C10.1074 2.32244 14.5281 2.47143 17.6534 4.99714" stroke="#F82032" stroke-width="1.5" stroke-linecap="round" stroke-linejoin="round"/>
<path d="M21.0037 8.00037L18.0024 10.9976" stroke="#F82032" stroke-width="1.5" stroke-linecap="round" stroke-linejoin="round"/>
<path d="M18.0045 7.99829L21.0018 10.9995" stroke="#F82032" stroke-width="1.5" stroke-linecap="round" stroke-linejoin="round"/>
<path d="M12 11.6688V8.39844" stroke="#F82032" stroke-width="1.5" stroke-linecap="round" stroke-linejoin="round"/>
<path d="M11.9999 15.2794C11.9571 15.2793 11.9161 15.2965 11.886 15.3269C11.856 15.3574 11.8393 15.3986 11.8399 15.4414C11.8415 15.5291 11.9122 15.5999 11.9999 15.6015C12.0895 15.6015 12.162 15.5289 12.162 15.4394C12.162 15.3499 12.0895 15.2773 11.9999 15.2773" stroke="#F82032" stroke-width="1.5" stroke-linecap="round" stroke-linejoin="round"/>
</svg>
