<svg width="24" height="24" viewBox="0 0 24 24" fill="none" xmlns="http://www.w3.org/2000/svg">
<path d="M20.7726 14.0009C19.8796 17.9187 16.4986 20.7706 12.4863 20.9903C8.474 21.21 4.8018 18.7443 3.48638 14.9474C2.17096 11.1505 3.53079 6.94155 6.81907 4.63199C10.1074 2.32244 14.528 2.47143 17.6533 4.99714" stroke="#007CC4" stroke-width="1.5" stroke-linecap="round" stroke-linejoin="round"/>
<path d="M21.0038 8.00037L18.0025 10.9976" stroke="#007CC4" stroke-width="1.5" stroke-linecap="round" stroke-linejoin="round"/>
<path d="M18.0045 7.99829L21.0017 10.9995" stroke="#007CC4" stroke-width="1.5" stroke-linecap="round" stroke-linejoin="round"/>
<path d="M12 11.6688V8.39844" stroke="#007CC4" stroke-width="1.5" stroke-linecap="round" stroke-linejoin="round"/>
<path d="M12 15.2794C11.9572 15.2793 11.9162 15.2965 11.8861 15.3269C11.856 15.3574 11.8394 15.3986 11.8399 15.4414C11.8415 15.5291 11.9123 15.5999 12 15.6015C12.0895 15.6015 12.1621 15.5289 12.1621 15.4394C12.1621 15.3499 12.0895 15.2773 12 15.2773" stroke="#007CC4" stroke-width="1.5" stroke-linecap="round" stroke-linejoin="round"/>
</svg>
