<svg width="132" height="32" viewBox="0 0 132 32" fill="none" xmlns="http://www.w3.org/2000/svg">
<path d="M126 6.00006L116.187 16.4445L121.207 23.1112H113.905L110.71 19.5557L106.146 23.1112L111.166 17.3333L114.589 21.5556H118.241L113.677 16.2222L126 6.00006Z" fill="#181C30"/>
<path d="M99.0712 26L107.971 16.4445L102.951 9.77778H110.253L113.449 13.3333L118.013 9.77778L112.992 15.5556L109.569 11.3334H105.918L110.482 16.6666L99.0712 26Z" fill="#009BF5"/>
<path d="M53.0634 14.7883V17.9205H34.4074V19.7997H53.0634V22.9319H31.1909V14.7883H53.0634Z" fill="#181C30"/>
<path d="M53.9263 10.1127V12.8727H63.8462V23.2223H68.0977V12.8727H77.3092V10.1127H53.9263Z" fill="#181C30"/>
<path d="M78.1484 10.1127V12.8727H88.0684V23.2223H92.32V12.8727H101.531V10.1127H78.1484Z" fill="#181C30"/>
<path d="M52.9615 10.09V13.2222H27.8726L20.1528 23.245H16.9363L6 10.09H10.5032L18.2229 19.4865L25.9425 10.09H52.9615Z" fill="#181C30"/>
</svg>
